<?xml version="1.0" standalone="no"?>
<!DOCTYPE svg PUBLIC "-//W3C//DTD SVG 20010904//EN"
 "http://www.w3.org/TR/2001/REC-SVG-20010904/DTD/svg10.dtd">
<svg version="1.0" xmlns="http://www.w3.org/2000/svg"
 width="200.000000pt" height="45.000000pt" viewBox="0 0 200.000000 45.000000"
 preserveAspectRatio="xMidYMid meet">

<g transform="translate(0.000000,45.000000) scale(0.100000,-0.100000)"
fill="#000000" stroke="none">
<path d="M92 334 c-22 -15 -29 -48 -14 -71 4 -7 25 -19 47 -26 48 -17 64 -39
46 -61 -17 -20 -60 -21 -67 -1 -6 16 -34 21 -34 7 0 -18 38 -42 66 -42 35 0
59 16 68 46 8 28 -12 51 -58 67 -52 18 -68 43 -42 63 25 18 41 18 60 -1 16
-17 36 -20 36 -6 0 15 -42 41 -65 41 -11 0 -31 -7 -43 -16z"/>
<path d="M250 245 c0 -63 4 -105 10 -105 6 0 10 20 10 45 l0 45 55 0 55 0 0
-45 c0 -34 4 -45 15 -45 13 0 15 16 13 102 -2 70 -7 103 -15 106 -9 2 -13 -11
-13 -48 l0 -51 -52 3 -53 3 -3 48 c-6 90 -22 47 -22 -58z"/>
<path d="M670 330 c-39 -39 -19 -77 53 -100 29 -9 37 -17 37 -35 0 -34 -64
-51 -76 -20 -7 16 -34 21 -34 6 0 -17 43 -41 72 -41 29 0 68 30 68 53 0 24
-24 46 -65 60 -31 11 -41 20 -43 40 -4 34 29 45 64 22 32 -21 43 -12 19 15
-23 26 -69 26 -95 0z"/>
<path d="M830 245 c0 -63 4 -105 10 -105 6 0 10 20 10 45 l0 45 55 0 55 0 0
-45 c0 -34 4 -45 15 -45 13 0 15 16 13 103 -3 105 -20 142 -26 54 l-3 -48 -52
3 -52 3 -3 48 c-6 90 -22 47 -22 -58z"/>
<path d="M1040 245 c0 -63 4 -105 10 -105 6 0 10 42 10 105 0 63 -4 105 -10
105 -6 0 -10 -42 -10 -105z"/>
<path d="M1110 244 l0 -106 62 4 c51 4 65 9 85 32 27 32 30 83 8 126 -16 31
-62 50 -122 50 l-33 0 0 -106z m98 75 c36 -12 57 -55 47 -98 -8 -40 -39 -61
-87 -61 l-38 0 0 78 c0 43 3 82 7 85 9 10 36 9 71 -4z"/>
<path d="M1180 206 c0 -9 5 -16 10 -16 6 0 10 4 10 9 0 6 -4 13 -10 16 -5 3
-10 -1 -10 -9z"/>
<path d="M1326 343 c-3 -3 -6 -51 -6 -105 0 -80 3 -98 15 -98 11 0 15 12 15
45 l0 45 55 0 55 0 0 -45 c0 -25 5 -45 10 -45 6 0 10 42 10 105 0 105 -16 148
-22 58 l-3 -48 -52 -3 -53 -3 0 45 c0 43 -10 63 -24 49z"/>
<path d="M1730 246 c0 -60 4 -106 9 -106 6 0 11 19 13 42 4 60 28 62 62 3 15
-25 33 -45 42 -45 11 0 8 9 -11 40 l-25 39 25 25 c30 30 31 46 7 76 -13 16
-32 24 -70 28 l-52 5 0 -107z m94 71 c27 -19 17 -58 -17 -70 -41 -13 -57 -3
-57 36 0 19 3 37 7 40 11 11 48 8 67 -6z"/>
<path d="M479 240 c-24 -65 -32 -100 -24 -100 6 0 17 11 23 25 10 21 18 25 57
25 39 0 45 -3 51 -25 3 -14 12 -25 20 -25 10 0 5 25 -21 96 -19 53 -35 98 -35
100 0 2 -8 4 -17 4 -14 0 -27 -25 -54 -100z m74 15 l16 -45 -38 0 -39 0 17 45
c9 25 19 45 22 45 4 0 14 -20 22 -45z"/>
<path d="M1585 328 c-2 -7 -18 -50 -35 -96 -34 -95 -34 -92 -20 -92 6 0 16 11
22 25 9 21 18 25 55 25 37 0 45 -4 53 -25 9 -23 30 -35 30 -17 0 4 -15 47 -33
97 -22 61 -38 91 -50 93 -9 2 -19 -2 -22 -10z m55 -105 c0 -8 -14 -13 -35 -13
-19 0 -35 1 -35 3 0 2 8 26 17 53 l17 49 18 -40 c9 -22 18 -46 18 -52z"/>
<path d="M1896 171 c-3 -5 3 -11 13 -14 14 -3 18 -1 14 9 -6 16 -19 18 -27 5z"/>
</g>
</svg>
